<svg xmlns="http://www.w3.org/2000/svg" width="48.47" height="50" viewBox="0 0 48.47 50">
  <path id="Trazado_1018993" data-name="Trazado 1018993" d="M34.661,10.527a22.623,22.623,0,1,0,7.929-.071.806.806,0,0,1,.267-1.591,24.234,24.234,0,1,1-8.355.051l-.539-.539A.806.806,0,0,1,35.1,7.237L37.1,9.231a.806.806,0,0,1,0,1.14L35.1,12.365a.806.806,0,0,1-1.141-1.141Zm8.824,5.816a16.983,16.983,0,0,1,4.2,1.743l2.706-1.2a.806.806,0,0,1,.9.167l3.638,3.638a.807.807,0,0,1,.167.9L53.9,24.29A16.957,16.957,0,0,1,55.642,28.5l2.76,1.062a.807.807,0,0,1,.517.753v5.146a.806.806,0,0,1-.517.753l-2.76,1.062a17.132,17.132,0,0,1-1.743,4.2l1.2,2.707a.807.807,0,0,1-.167.9l-3.638,3.638a.806.806,0,0,1-.9.167l-2.706-1.2a16.937,16.937,0,0,1-4.206,1.743L42.421,52.2a.807.807,0,0,1-.753.517H36.523a.806.806,0,0,1-.753-.517l-1.062-2.76a17.1,17.1,0,0,1-4.21-1.744l-2.707,1.2a.807.807,0,0,1-.9-.167l-3.638-3.638a.806.806,0,0,1-.167-.9l1.2-2.705a17.086,17.086,0,0,1-1.746-4.205l-2.762-1.063a.806.806,0,0,1-.517-.753V30.316a.807.807,0,0,1,.517-.753L22.545,28.5a17.106,17.106,0,0,1,1.747-4.21l-1.2-2.706a.807.807,0,0,1,.167-.9l3.638-3.638a.806.806,0,0,1,.9-.167l2.706,1.2A16.982,16.982,0,0,1,34.7,16.343l1.067-2.766a.807.807,0,0,1,.752-.516h5.146a.807.807,0,0,1,.753.517Zm-1.355.969-1.014-2.639H37.076l-1.019,2.64a.807.807,0,0,1-.566.494,15.375,15.375,0,0,0-4.516,1.871.806.806,0,0,1-.751.05l-2.583-1.148-2.855,2.855,1.148,2.583a.806.806,0,0,1-.05.751,15.5,15.5,0,0,0-1.877,4.523.807.807,0,0,1-.495.564L20.88,30.87v4.039l2.634,1.014a.807.807,0,0,1,.494.564A15.47,15.47,0,0,0,25.885,41a.807.807,0,0,1,.051.752l-1.148,2.583,2.855,2.855,2.583-1.144a.806.806,0,0,1,.748.05A15.492,15.492,0,0,0,35.5,47.97a.806.806,0,0,1,.567.5L37.076,51.1h4.039l1.014-2.634a.806.806,0,0,1,.566-.495A15.32,15.32,0,0,0,47.21,46.1a.806.806,0,0,1,.751-.051l2.583,1.144L53.4,44.337l-1.144-2.583a.807.807,0,0,1,.05-.748,15.516,15.516,0,0,0,1.872-4.517.807.807,0,0,1,.495-.566l2.634-1.014V30.87l-2.634-1.014a.807.807,0,0,1-.5-.567,15.351,15.351,0,0,0-1.871-4.52.807.807,0,0,1-.051-.75L53.4,21.436l-2.855-2.855-2.582,1.148a.806.806,0,0,1-.751-.05A15.377,15.377,0,0,0,42.7,17.807a.806.806,0,0,1-.566-.5ZM29.344,33.7H27.407a.806.806,0,1,1,0-1.613h1.936a9.78,9.78,0,0,1,8.944-8.948V21.2a.806.806,0,1,1,1.613,0v1.937a9.786,9.786,0,0,1,8.948,8.943h1.937a.806.806,0,0,1,0,1.613H48.848A9.791,9.791,0,0,1,39.9,42.641v1.937a.806.806,0,0,1-1.613,0V42.642A9.786,9.786,0,0,1,29.344,33.7Zm8.943-8.942a8.169,8.169,0,0,0-7.324,7.329h1.865a.806.806,0,0,1,0,1.613H30.963a8.174,8.174,0,0,0,7.329,7.324V39.157a.806.806,0,0,1,1.613,0v1.864a8.178,8.178,0,0,0,7.324-7.328H45.364a.806.806,0,1,1,0-1.613h1.865A8.173,8.173,0,0,0,39.9,24.756v1.865a.806.806,0,0,1-1.613,0Zm-3.409,8.3a.806.806,0,1,1,1.141-1.141l2.127,2.127,4.024-4.024a.806.806,0,1,1,1.14,1.141l-4.594,4.594a.807.807,0,0,1-1.141,0Z" transform="translate(-14.591 -7.001)" fill="#484e36" fill-rule="evenodd"/>
</svg>
