<svg xmlns="http://www.w3.org/2000/svg" width="49.405" height="50" viewBox="0 0 49.405 50">
  <g id="Grupo_1183896" data-name="Grupo 1183896" transform="translate(0.023)">
    <g id="Grupo_1099618" data-name="Grupo 1099618" transform="translate(-0.023 0)">
      <rect id="Rectángulo_401104" data-name="Rectángulo 401104" width="49.405" height="50" transform="translate(0)" fill="none"/>
    </g>
    <g id="Grupo_1185979" data-name="Grupo 1185979" transform="translate(2.878 3.125)">
      <g id="Grupo_1185976" data-name="Grupo 1185976" transform="translate(2.923 2.988)">
        <g id="Grupo_1185975" data-name="Grupo 1185975">
          <path id="Trazado_1018982" data-name="Trazado 1018982" d="M47.437,32.106A15.255,15.255,0,1,0,62.693,47.361,15.255,15.255,0,0,0,47.437,32.106Zm0,1.453a13.788,13.788,0,0,1,11.272,5.862l-1.816,1.816a2.867,2.867,0,0,0-1.465-.414,2.906,2.906,0,0,0-2.906,2.906,2.867,2.867,0,0,0,.412,1.467l-4.757,4.757a2.817,2.817,0,0,0-2.933,0l-3.3-3.3a2.867,2.867,0,0,0,.412-1.467,2.9,2.9,0,0,0-5.708-.726h-2.7A13.822,13.822,0,0,1,47.437,33.559Zm9.444,10.17a1.453,1.453,0,1,1-1.453-1.453A1.453,1.453,0,0,1,56.881,43.729Zm-8.717,8.717a1.453,1.453,0,1,1-1.453-1.453A1.453,1.453,0,0,1,48.164,52.446ZM40.9,45.182a1.453,1.453,0,1,1-1.453-1.453A1.453,1.453,0,0,1,40.9,45.182ZM54.144,59.43A13.8,13.8,0,0,1,33.713,45.908h2.931a2.906,2.906,0,0,0,2.8,2.179,2.867,2.867,0,0,0,1.467-.412l3.3,3.3a2.867,2.867,0,0,0-.412,1.467,2.906,2.906,0,0,0,5.812,0A2.867,2.867,0,0,0,49.2,50.98l4.757-4.757a2.867,2.867,0,0,0,1.467.412,2.906,2.906,0,0,0,2.906-2.906,2.867,2.867,0,0,0-.412-1.467l1.584-1.583A13.79,13.79,0,0,1,54.144,59.43Z" transform="translate(-32.182 -32.106)" fill="#484e36"/>
        </g>
      </g>
      <g id="Grupo_1185978" data-name="Grupo 1185978" transform="translate(0 0.08)">
        <g id="Grupo_1185977" data-name="Grupo 1185977" transform="translate(0 0)">
          <path id="Trazado_1018983" data-name="Trazado 1018983" d="M36.339,7.347a2.906,2.906,0,0,0,2.8-2.179H43.6V3.715H39.142a2.9,2.9,0,0,0-5.708.726,2.867,2.867,0,0,0,.412,1.467L32.569,7.184a18.161,18.161,0,1,0-4.534,26.3l2.192,2.192,1.027,1.027L37.1,42.554a3.808,3.808,0,0,0,5.386-5.386L36.64,31.32l-1.027-1.027L33.42,28.1a18.1,18.1,0,0,0,0-19.713l1.453-1.453A2.868,2.868,0,0,0,36.339,7.347Zm0-4.359a1.453,1.453,0,1,1-1.453,1.453A1.453,1.453,0,0,1,36.339,2.988Zm5.121,35.206a2.356,2.356,0,1,1-3.294,3.369l-.038-.038-5.848-5.848,3.331-3.331ZM34.585,31.32l-3.331,3.331L29.243,32.64c.1-.078.2-.165.3-.246s.218-.177.326-.268c.159-.134.316-.269.47-.408.079-.073.155-.145.232-.218q.447-.418.865-.865c.073-.078.145-.153.218-.232.139-.154.274-.311.408-.47q.137-.161.268-.326c.08-.1.166-.2.245-.3Zm-2.817-3.374c-.229.32-.465.633-.714.934-.073.088-.15.173-.225.259q-.333.388-.689.753-.155.16-.315.315-.363.355-.753.689c-.086.073-.171.152-.259.225-.3.249-.615.485-.934.714a16.734,16.734,0,1,1,3.889-3.889Z" transform="translate(0 -0.08)" fill="#484e36"/>
        </g>
      </g>
    </g>
  </g>
</svg>
