<svg xmlns="http://www.w3.org/2000/svg" width="128" height="128" viewBox="0 0 128 128">
  <g id="Grupo_1183843" data-name="Grupo 1183843" transform="translate(-72.746 -7992)">
    <g id="Elipse_13628" data-name="Elipse 13628" transform="translate(72.746 7992)" fill="#ecf0f1" stroke="#ffa038" stroke-width="6">
      <circle cx="64" cy="64" r="64" stroke="none"/>
      <circle cx="64" cy="64" r="61" fill="none"/>
    </g>
    <g id="FILLED_OUTLINE" transform="translate(85.638 8004.017)">
      <path id="Trazado_1017313" data-name="Trazado 1017313" d="M167.337,119.3v-3.63a3.668,3.668,0,0,0-7.337,0v3.63a3.668,3.668,0,0,0,2.306,3.406l1.362.545,1.362-.545A3.669,3.669,0,0,0,167.337,119.3Z" transform="translate(-123.435 -82.09)" fill="#bebebe"/>
      <path id="Trazado_1017314" data-name="Trazado 1017314" d="M137.433,185.949l-.873-.349-.873.349A12.228,12.228,0,0,0,128,197.3v3.949h17.12V197.3a12.228,12.228,0,0,0-7.687-11.354Z" transform="translate(-96.326 -144.44)" fill="#bebebe"/>
      <path id="Trazado_1017315" data-name="Trazado 1017315" d="M69.552,45.661l3.361-1.779-1.951-5.936-3.77.515-3.323-4.523,1.679-3.429-5.1-3.67-2.778,2.636-5.374-1.728L51.612,24H45.3l-.68,3.748-5.374,1.728L36.47,26.84l-5.1,3.67,1.679,3.429-3.323,4.523-3.77-.515L24,43.882l3.361,1.779v5.591L24,53.031l1.951,5.936,3.77-.515,3.323,4.523L31.365,66.4l5.1,3.67,2.778-2.636,5.374,1.728.68,3.748h6.31l.68-3.748,5.374-1.728-2.283-4.668a15.88,15.88,0,1,1,8.231-9.509l4.333,5.3,3.015.412,1.95-5.936-3.361-1.779C69.552,48.719,69.552,48.194,69.552,45.661Z" transform="translate(-8.223 -7.541)" fill="#006cda"/>
      <path id="Trazado_1017316" data-name="Trazado 1017316" d="M327.337,293.178v-1.51a3.668,3.668,0,1,0-7.337,0v1.51a3.669,3.669,0,0,0,1.887,3.207l1.782.99,1.782-.99A3.668,3.668,0,0,0,327.337,293.178Z" transform="translate(-258.979 -231.187)" fill="#bebebe"/>
      <path id="Trazado_1017317" data-name="Trazado 1017317" d="M306.9,351.313l-3.563-1.98-3.563,1.979A7.337,7.337,0,0,0,296,357.726v5.466h14.674v-5.466a7.337,7.337,0,0,0-3.774-6.414Z" transform="translate(-238.647 -283.145)" fill="#bebebe"/>
      <path id="Trazado_1017318" data-name="Trazado 1017318" d="M244.022,224.85v-5.679l-3.374-.612-1.555-4.837,2.373-2.5-3.3-4.594-3.086,1.511-4.07-2.991.463-3.393L226.128,200l-1.6,3.025h-5.032l-1.6-3.025-5.343,1.755.463,3.393-4.07,2.991-3.086-1.511-3.3,4.594,2.373,2.5-1.555,4.837-3.373.612v5.679l3.374.612,1.555,4.837-2.373,2.5,3.3,4.594,3.086-1.511,4.07,2.991-.463,3.393,5.343,1.755L219.5,241h5.032l1.6,3.025,5.343-1.755-.463-3.393,4.07-2.991,3.086,1.511,3.3-4.594-2.373-2.5,1.555-4.837Zm-22.011,10.612a13.451,13.451,0,1,1,13.451-13.451A13.451,13.451,0,0,1,222.011,235.462Z" transform="translate(-157.321 -156.639)" fill="#008afe"/>
      <path id="Trazado_1017319" data-name="Trazado 1017319" d="M341.511,41.543,331.156,24.286a2.446,2.446,0,0,0-4.194,0L316.607,41.543a2.446,2.446,0,0,0,2.1,3.7h20.709a2.446,2.446,0,0,0,2.1-3.7Z" transform="translate(-255.809 -6.777)" fill="#f4c44d"/>
      <rect id="Rectángulo_457228" data-name="Rectángulo 457228" width="2.446" height="8.56" transform="translate(72.027 21.351)" fill="#f4f4f4"/>
      <rect id="Rectángulo_457229" data-name="Rectángulo 457229" width="2.446" height="2.446" transform="translate(72.027 32.356)" fill="#f4f4f4"/>
      <path id="Trazado_1017320" data-name="Trazado 1017320" d="M90.093,353.918A30.609,30.609,0,0,1,78.2,341.451l2.173-1.122A28.167,28.167,0,0,0,91.317,351.8Z" transform="translate(-54.14 -275.517)" fill="#dfdfdf"/>
      <path id="Trazado_1017321" data-name="Trazado 1017321" d="M176.486,426.994a30.485,30.485,0,0,1-3.822-1.452l1.02-2.223a28.018,28.018,0,0,0,3.515,1.335Z" transform="translate(-134.163 -345.823)" fill="#dfdfdf"/>
      <path id="Trazado_1017322" data-name="Trazado 1017322" d="M17.861,283.227a36.7,36.7,0,0,1-.592-3.8l2.433-.25a34.318,34.318,0,0,0,.553,3.542Z" transform="translate(-2.521 -223.717)" fill="#dfdfdf"/>
      <path id="Trazado_1017323" data-name="Trazado 1017323" d="M60.521,345.037a36.349,36.349,0,0,1-22.27-7.531,36.946,36.946,0,0,1-13-19.035L27.6,317.8a34.486,34.486,0,0,0,12.136,17.765,33.923,33.923,0,0,0,20.784,7.028Z" transform="translate(-9.282 -256.43)" fill="#dfdfdf"/>
      <path id="Trazado_1017324" data-name="Trazado 1017324" d="M262.674,248a14.674,14.674,0,1,0,14.674,14.674A14.674,14.674,0,0,0,262.674,248Zm-6.114,25.257v-1.375a6.118,6.118,0,0,1,3.145-5.345l2.969-1.65,2.969,1.65a6.118,6.118,0,0,1,3.145,5.345v1.375a12.184,12.184,0,0,1-12.228,0Zm3.668-13.965v-1.51a2.446,2.446,0,1,1,4.891,0v1.51a2.447,2.447,0,0,1-1.258,2.138l-1.188.66-1.188-.66a2.447,2.447,0,0,1-1.258-2.138Zm10.991,12.117a8.564,8.564,0,0,0-4.389-7.009l-1.642-.912a4.894,4.894,0,0,0,2.376-4.2v-1.51a4.891,4.891,0,1,0-9.783,0v1.51a4.894,4.894,0,0,0,2.376,4.2l-1.642.912a8.564,8.564,0,0,0-4.389,7.009,12.228,12.228,0,1,1,17.091,0Z" transform="translate(-197.984 -197.302)"/>
      <path id="Trazado_1017325" data-name="Trazado 1017325" d="M308.7,37.832a3.627,3.627,0,0,0,3.192,1.861H332.6a3.668,3.668,0,0,0,3.146-5.556L325.391,16.88a3.669,3.669,0,0,0-6.292,0L308.745,34.137a3.627,3.627,0,0,0-.047,3.695Zm2.144-2.437L321.2,18.138h0a1.223,1.223,0,0,1,2.1,0L333.648,35.4a1.223,1.223,0,0,1-1.049,1.852H311.891a1.223,1.223,0,0,1-1.048-1.852Z" transform="translate(-248.996)"/>
      <rect id="Rectángulo_457230" data-name="Rectángulo 457230" width="2.446" height="8.56" transform="translate(72.027 21.351)"/>
      <rect id="Rectángulo_457231" data-name="Rectángulo 457231" width="2.446" height="2.446" transform="translate(72.027 32.356)"/>
      <path id="Trazado_1017326" data-name="Trazado 1017326" d="M87.924,70V62.275l-3.657-.663-1.109-3.449,2.57-2.708-4.5-6.254-3.348,1.639L75,48.719l.5-3.682-7.29-2.4L66.47,45.927H62.91l-1.739-3.286-3.969,1.3A17.1,17.1,0,1,0,45.909,57.834l.312.329-1.109,3.449-3.657.663v2.638H38.1l-.629-3.465-6.763-2.174-2.57,2.439-3.444-2.476,1.55-3.166-4.192-5.705-3.482.475-1.311-3.989,3.1-1.641V38.148l-3.1-1.641,1.311-3.989,3.482.475,4.192-5.705-1.55-3.166,3.444-2.476,2.569,2.439,6.763-2.174.628-3.465h4.268L43,21.911l6.763,2.174,2.57-2.439,3.444,2.476-1.55,3.166,3.393,4.617,1.971-1.448L57.07,27.033l1.807-3.691-6.764-4.863-2.986,2.834-3.986-1.281L44.409,16H36.057l-.731,4.031L31.34,21.313l-2.986-2.834L21.59,23.342,23.4,27.033l-2.454,3.34-4.059-.554L14.293,37.7l3.622,1.917v4.118l-3.622,1.917,2.59,7.884,4.059-.554,2.454,3.34L21.59,60.017l6.765,4.863,2.986-2.834,3.986,1.281.731,4.031h5.4V70l3.657.663,1.109,3.449-2.57,2.708,4.5,6.254L51.5,81.431l2.888,2.122-.5,3.682,7.29,2.4,1.739-3.286h3.559l1.739,3.286,7.29-2.4L75,83.553l2.888-2.122,3.348,1.639,4.5-6.254-2.57-2.708,1.109-3.449ZM25.559,41.679a14.674,14.674,0,1,1,29.012,3.13l-.691.227.5,3.682L51.5,50.841l-2.019-.988A13.338,13.338,0,0,0,43.156,41.9a4.865,4.865,0,0,0,1.969-3.925v-3.63a4.891,4.891,0,1,0-9.783,0v3.63A4.865,4.865,0,0,0,37.311,41.9a13.364,13.364,0,0,0-6.824,10.741A14.641,14.641,0,0,1,25.559,41.679Zm17.12-7.337v3.63a2.434,2.434,0,0,1-1.537,2.271l-.908.363-.908-.363a2.434,2.434,0,0,1-1.537-2.271v-3.63a2.446,2.446,0,1,1,4.891,0ZM40.233,56.353a14.584,14.584,0,0,1-7.337-1.97v-.757a10.953,10.953,0,0,1,6.918-10.218l.419-.167.419.167a10.931,10.931,0,0,1,6.494,7.186l-3.495,4.861.381.4A14.662,14.662,0,0,1,40.233,56.353ZM82.562,77.032l-2.109,2.933L77.63,78.583l-5.253,3.86.424,3.1-3.395,1.116L67.942,83.9h-6.5l-1.463,2.764-3.4-1.116.424-3.1-5.253-3.86-2.823,1.382-2.109-2.933,2.175-2.292-2-6.225L43.9,67.955V64.318l3.091-.561,2-6.225L46.818,55.24l2.109-2.934,2.823,1.382L57,49.829l-.424-3.1,3.395-1.116,1.463,2.764h6.5l1.463-2.764,3.4,1.116-.424,3.1,5.253,3.86,2.823-1.382,2.109,2.933-2.175,2.292,2,6.225,3.091.561v3.637l-3.091.561-2,6.225Z" transform="translate(0 -0.764)"/>
      <path id="Trazado_1017327" data-name="Trazado 1017327" d="M90.093,353.918l1.225-2.117a28.167,28.167,0,0,1-10.943-11.473L78.2,341.451a30.609,30.609,0,0,0,11.891,12.468Z" transform="translate(-54.14 -275.517)"/>
      <path id="Trazado_1017328" data-name="Trazado 1017328" d="M173.683,423.32l-1.02,2.223a30.48,30.48,0,0,0,3.822,1.452l.712-2.34A28.022,28.022,0,0,1,173.683,423.32Z" transform="translate(-134.163 -345.823)"/>
      <path id="Trazado_1017329" data-name="Trazado 1017329" d="M19.7,279.182l-2.433.25a36.7,36.7,0,0,0,.592,3.8l2.393-.5a34.316,34.316,0,0,1-.553-3.542Z" transform="translate(-2.521 -223.717)"/>
      <path id="Trazado_1017330" data-name="Trazado 1017330" d="M27.6,317.8l-2.351.673a36.946,36.946,0,0,0,13,19.035,36.349,36.349,0,0,0,22.27,7.531v-2.446a33.923,33.923,0,0,1-20.784-7.028A34.486,34.486,0,0,1,27.6,317.8Z" transform="translate(-9.282 -256.431)"/>
    </g>
  </g>
</svg>
