<svg xmlns="http://www.w3.org/2000/svg" width="96" height="96" viewBox="0 0 96 96">
  <g id="Grupo_154427" data-name="Grupo 154427" transform="translate(-794.039 -2920.081)">
    <path id="Elipse_5729" data-name="Elipse 5729" d="M48,0A48,48,0,1,1,0,48,48,48,0,0,1,48,0Z" transform="translate(794.039 2920.081)" fill="#ffa038"/>
    <g id="Grupo_1184054" data-name="Grupo 1184054" transform="translate(813.262 2939.289)">
      <path id="Trazado_1017460" data-name="Trazado 1017460" d="M238.442,17.838a.074.074,0,0,1,.024.09,4.287,4.287,0,0,0,3.38,5.854.074.074,0,0,1,.066.066,4.259,4.259,0,0,0,1.587,2.768l-1.724,5.945a2.177,2.177,0,0,0,1.486,2.7l4.491,1.3a2.181,2.181,0,0,0,2.7-1.486l.784-2.7.784,2.7a2.181,2.181,0,0,0,2.7,1.486l4.491-1.3a2.177,2.177,0,0,0,1.486-2.7l-1.724-5.945a4.26,4.26,0,0,0,1.587-2.768.074.074,0,0,1,.066-.066A4.287,4.287,0,0,0,264,17.927a.074.074,0,0,1,.024-.09,4.287,4.287,0,0,0,0-6.759.074.074,0,0,1-.024-.09,4.287,4.287,0,0,0-3.38-5.854.074.074,0,0,1-.066-.066,4.288,4.288,0,0,0-5.854-3.38.074.074,0,0,1-.09-.024,4.287,4.287,0,0,0-6.759,0,.074.074,0,0,1-.09.024,4.287,4.287,0,0,0-5.854,3.38.074.074,0,0,1-.066.066,4.287,4.287,0,0,0-3.38,5.854.074.074,0,0,1-.024.09,4.287,4.287,0,0,0,0,6.759Zm10.389,16.768a.494.494,0,0,1-.61.336l-4.491-1.3a.493.493,0,0,1-.336-.61l1.635-5.64a4.276,4.276,0,0,0,2.736-.162.075.075,0,0,1,.09.024,4.279,4.279,0,0,0,2.336,1.521l.166.572Zm10.244-1.576a.493.493,0,0,1-.336.61l-4.491,1.3a.492.492,0,0,1-.61-.336l-1.672-5.767a4.309,4.309,0,0,0,2.648-1.588.074.074,0,0,1,.09-.024,4.283,4.283,0,0,0,2.736.162ZM239.48,12.407a1.749,1.749,0,0,0,.549-2.05A2.6,2.6,0,0,1,242.081,6.8a1.749,1.749,0,0,0,1.5-1.5,2.6,2.6,0,0,1,3.553-2.051,1.749,1.749,0,0,0,2.05-.549,2.6,2.6,0,0,1,4.1,0,1.749,1.749,0,0,0,2.05.549A2.6,2.6,0,0,1,258.889,5.3a1.749,1.749,0,0,0,1.5,1.5,2.6,2.6,0,0,1,2.051,3.553,1.749,1.749,0,0,0,.549,2.05,2.6,2.6,0,0,1,0,4.1,1.75,1.75,0,0,0-.549,2.05,2.6,2.6,0,0,1-2.051,3.553,1.749,1.749,0,0,0-1.5,1.5,2.6,2.6,0,0,1-3.553,2.051,1.749,1.749,0,0,0-2.05.549,2.589,2.589,0,0,1-2.338.985h0a2.614,2.614,0,0,1-1.764-.985h0a1.876,1.876,0,0,0-2.33-.454,2.588,2.588,0,0,1-1.963-.236l-.006,0-.028-.015a2.588,2.588,0,0,1-1.276-1.893,1.749,1.749,0,0,0-1.5-1.5,2.6,2.6,0,0,1-2.051-3.553,1.749,1.749,0,0,0-.549-2.05,2.6,2.6,0,0,1,0-4.1Z" transform="translate(-210.176 0)" fill="#484e36"/>
      <path id="Trazado_1017461" data-name="Trazado 1017461" d="M337.216,108.578l-2.986,2.986-1.854-1.854a.843.843,0,1,0-1.192,1.192l2.451,2.451a.843.843,0,0,0,1.192,0l3.583-3.583a.843.843,0,1,0-1.192-1.192Z" transform="translate(-293.737 -96.14)" fill="#484e36"/>
      <path id="Trazado_1017462" data-name="Trazado 1017462" d="M57.15,310.45c-1.171-2.445-3.618-2.9-6.094-1.928l-12.895,3.815a3.878,3.878,0,0,0-2.66-3.628c-8.152-3.254-9.226-3.853-11.45-3.891h-.036c-6.389.021-7.7.072-11.028,1.563-4.5,2.015-4.929,3.358-7.749,4.134l-3.866,1.063A1.873,1.873,0,0,0,0,313.378v12.86a1.868,1.868,0,0,0,2.531,1.746l5.533-2.1a.843.843,0,0,0-.6-1.576l-5.533,2.1a.182.182,0,0,1-.247-.17v-12.86a.183.183,0,0,1,.134-.176l3.866-1.063c3.145-.865,3.633-2.27,7.991-4.22,3.021-1.352,4.138-1.4,10.326-1.416h0c1.881.03,2.791.545,10.871,3.772a2.334,2.334,0,0,1,1.482,2.967l0,.008c0,.006,0,.012-.007.019A1.723,1.723,0,0,1,34.2,314.5c-2.415-.591-8.168-1.977-8.226-1.991a.843.843,0,1,0-.395,1.639c.058.014,5.808,1.4,8.219,1.989a3.308,3.308,0,0,0,3.99-1.938l13.769-4.074c.384-.113,2.941-1.281,4.061,1.035.942,2.165-1.2,3.432-1.694,3.691l-18.314,8.1-.022.01-.024.012a7.61,7.61,0,0,1-5.845.35l-5.234-2.089a13.481,13.481,0,0,0-9.081.052l-.038.013-4.227,1.6a.843.843,0,0,0,.6,1.576l4.208-1.6a11.968,11.968,0,0,1,7.915-.083l5.253,2.1.038.014a9.316,9.316,0,0,0,7.161-.427l18.317-8.1.044-.021c1.538-.789,3.792-2.918,2.483-5.893l-.011-.025Z" transform="translate(0 -270.539)" fill="#484e36"/>
      <path id="Trazado_1017463" data-name="Trazado 1017463" d="M295.766,67.791a8.793,8.793,0,0,0,8.531-6.627.843.843,0,0,0-1.634-.416,7.116,7.116,0,1,1,0-3.519.843.843,0,0,0,1.634-.416,8.8,8.8,0,1,0-8.531,10.977Z" transform="translate(-254.706 -44.531)" fill="#484e36"/>
    </g>
  </g>
</svg>
