<svg xmlns="http://www.w3.org/2000/svg" width="84" height="84" viewBox="0 0 84 84">
  <g id="Grupo_1182537" data-name="Grupo 1182537" transform="translate(-642 -345)">
    <rect id="Rectángulo_456604" data-name="Rectángulo 456604" width="84" height="84" rx="10" transform="translate(642 345)" fill="#ffa038"/>
    <g id="Grupo_1184059" data-name="Grupo 1184059" transform="translate(634.682 354.866)">
      <path id="Trazado_1017492" data-name="Trazado 1017492" d="M52.339,141l-1.356.678a13.964,13.964,0,0,1-2.962,1.079l-6.753,1.707a4.23,4.23,0,0,0-3.188,3.866L36.5,167.686a1.516,1.516,0,0,0,1.481,1.556h18.6Z" transform="translate(-9.36 -105.603)" fill="#3caadc"/>
      <path id="Trazado_1017493" data-name="Trazado 1017493" d="M153.132,153.879a7.313,7.313,0,0,1-6.075-11.372,16.027,16.027,0,0,1-2.059-.828L143.643,141,139.4,169.243h18.577a1.511,1.511,0,0,0,1.506-1.506v-.025l-1.305-15.866A7.183,7.183,0,0,1,153.132,153.879Z" transform="translate(-86.429 -105.603)" fill="#3caadc"/>
      <path id="Trazado_1017494" data-name="Trazado 1017494" d="M103.843,166.022h5.774l4.243-28.243L111.65,136.7l-2.285,4.72a1.033,1.033,0,0,1-.929.577h-3.59a1.013,1.013,0,0,1-.929-.6l-2.109-4.695L99.6,137.779Z" transform="translate(-56.621 -102.382)" fill="#dae6f1"/>
      <path id="Trazado_1017495" data-name="Trazado 1017495" d="M141.739,145.562l1.155-7.782-2.209-1.079-2.285,4.72,3.238,4.042Z" transform="translate(-85.68 -102.382)" fill="#edf4fc"/>
      <path id="Trazado_1017496" data-name="Trazado 1017496" d="M100.855,145.562a.346.346,0,0,0,.075-.1l3.163-3.916-.075-.151-2.109-4.695L99.7,137.779Z" transform="translate(-56.696 -102.382)" fill="#edf4fc"/>
      <path id="Trazado_1017497" data-name="Trazado 1017497" d="M120.6,155.5a1.033,1.033,0,0,1-.929.577h-3.59a1.047,1.047,0,0,1-.854-.452l-.628.778,1.506,3.916h3.665l1.506-3.916Z" transform="translate(-67.855 -116.463)" fill="#5290db"/>
      <path id="Trazado_1017498" data-name="Trazado 1017498" d="M118.449,174.7h-3.665L112.8,188.357l.929,6.125H119.5l.929-6.125Z" transform="translate(-66.507 -130.842)" fill="#3a70bf"/>
      <circle id="Elipse_16696" data-name="Elipse 16696" cx="7.305" cy="7.305" r="7.305" transform="translate(59.397 33.665)" fill="#87d147"/>
      <g id="Grupo_1184058" data-name="Grupo 1184058" transform="translate(35.29 9.916)">
        <path id="Trazado_1017499" data-name="Trazado 1017499" d="M113.32,124.405a9.949,9.949,0,0,1-4.92-1.305v3.414l2.109,4.695a1.013,1.013,0,0,0,.929.6h3.59a1.033,1.033,0,0,0,.929-.577l2.285-4.72V123.1A9.949,9.949,0,0,1,113.32,124.405Z" transform="translate(-98.502 -102.113)" fill="#f9d0b4"/>
        <path id="Trazado_1017500" data-name="Trazado 1017500" d="M168.278,58.3a5.713,5.713,0,0,0-.653.05v7.556a6.118,6.118,0,0,1-.025.678,4.158,4.158,0,1,0,1.331-8.209,1.866,1.866,0,0,0-.653-.075Z" transform="translate(-142.84 -53.58)" fill="#f9d0b4"/>
        <path id="Trazado_1017501" data-name="Trazado 1017501" d="M73.825,65.862V58.33a4.173,4.173,0,1,0-1.356,8.234,4.247,4.247,0,0,0,1.381,0,6.817,6.817,0,0,1-.025-.7Z" transform="translate(-68.973 -53.56)" fill="#f9d0b4"/>
        <path id="Trazado_1017502" data-name="Trazado 1017502" d="M99.773,39.7c-3.665,4.594-9.038,3.941-10.845,3.565a.541.541,0,0,0-.628.4V51.8a9.966,9.966,0,0,0,19.933,0V42.764a.547.547,0,0,0-.527-.527c-4.142-.126-6.326-1.757-7.155-2.586a.546.546,0,0,0-.753,0,.088.088,0,0,1-.025.05Z" transform="translate(-83.448 -39.5)" fill="#f9d0b4"/>
      </g>
      <path id="Trazado_1017503" data-name="Trazado 1017503" d="M77.911,16.508a5.712,5.712,0,0,1,.653.05v-.477a.53.53,0,0,1,.527-.527h.1c1.808.377,7.18,1.029,10.845-3.565a.551.551,0,0,1,.753-.1c.025,0,.025.025.05.05.828.828,3.013,2.46,7.155,2.586a.567.567,0,0,1,.527.527v1.481a4.135,4.135,0,0,1,3.54,1.13V10.182a5.711,5.711,0,0,0-5.7-5.7,5.651,5.651,0,0,0-2.912.8A5.761,5.761,0,0,0,88.53,2.5H85.593A10.323,10.323,0,0,0,75.3,12.793v4.619a4.126,4.126,0,0,1,2.611-.9Z" transform="translate(-38.421 -1.872)" fill="#818182"/>
      <path id="Trazado_1017504" data-name="Trazado 1017504" d="M179.9,157.74l-2.234-2.234a1.26,1.26,0,0,1,1.757-1.808l.025.025,1.356,1.356,2.837-2.837a1.26,1.26,0,0,1,1.782,1.782l-3.715,3.715A1.32,1.32,0,0,1,179.9,157.74Z" transform="translate(-114.805 -113.757)" fill="#edf4fc"/>
      <path id="Trazado_1017505" data-name="Trazado 1017505" d="M114.54,98.935a5.225,5.225,0,0,1-4.418-2.435.637.637,0,0,1,1.079-.678,3.977,3.977,0,0,0,5.473,1.255,4.273,4.273,0,0,0,1.255-1.255.637.637,0,1,1,1.079.678A5.377,5.377,0,0,1,114.54,98.935Z" transform="translate(-64.431 -71.546)"/>
      <circle id="Elipse_16697" data-name="Elipse 16697" cx="1.18" cy="1.18" r="1.18" transform="translate(44.636 18.025)"/>
      <circle id="Elipse_16698" data-name="Elipse 16698" cx="1.18" cy="1.18" r="1.18" transform="translate(53.422 18.025)"/>
      <path id="Trazado_1017506" data-name="Trazado 1017506" d="M54.711,168.107H36.134A2.132,2.132,0,0,1,34,165.973V165.9l1.582-19.356a4.867,4.867,0,0,1,3.665-4.418L46,140.417a15.939,15.939,0,0,0,2.837-1.029l1.356-.678a.623.623,0,0,1,.828.276.465.465,0,0,1,.05.176l4.268,28.217a.607.607,0,0,1-.527.7A.19.19,0,0,1,54.711,168.107Zm-19.456-2.159a.912.912,0,0,0,.879.9H53.983l-4.017-26.661-.6.3a16.194,16.194,0,0,1-3.088,1.13l-6.753,1.707a3.558,3.558,0,0,0-2.711,3.289Z" transform="translate(-7.49 -103.839)"/>
      <path id="Trazado_1017507" data-name="Trazado 1017507" d="M156.2,167.977H137.628a.622.622,0,0,1-.628-.628v-.1l4.243-28.243a.62.62,0,0,1,.7-.527.363.363,0,0,1,.176.05l1.356.678a13.25,13.25,0,0,0,1.958.778.62.62,0,0,1,.4.778l-.075.151a6.665,6.665,0,0,0,10.167,8.51.607.607,0,0,1,.879.025.744.744,0,0,1,.176.377l1.305,15.866v.025A2.133,2.133,0,0,1,156.2,167.9C156.23,167.977,156.23,167.977,156.2,167.977Zm-17.849-1.255H156.2a.873.873,0,0,0,.879-.879l-1.205-14.636a7.938,7.938,0,0,1-11.548-10.243,11.456,11.456,0,0,1-1.381-.6l-.6-.3Z" transform="translate(-84.632 -103.71)"/>
      <path id="Trazado_1017508" data-name="Trazado 1017508" d="M107.716,164.751h-5.774a.645.645,0,0,1-.628-.527l-4.243-28.243a.607.607,0,0,1,.351-.653l2.209-1.079a.623.623,0,0,1,.828.276v.025l2.109,4.695a.379.379,0,0,0,.351.226h3.59a.379.379,0,0,0,.351-.226l2.285-4.72a.633.633,0,0,1,.828-.3l2.209,1.079a.641.641,0,0,1,.351.653l-4.192,28.268a.645.645,0,0,1-.628.527Zm-5.247-1.255h4.695l4.092-27.238-1.23-.6-2.008,4.167a1.634,1.634,0,0,1-1.481.929h-3.59a1.648,1.648,0,0,1-1.506-.979l-1.858-4.117-1.205.6Z" transform="translate(-54.72 -100.483)"/>
      <path id="Trazado_1017509" data-name="Trazado 1017509" d="M68.828,201.274a.622.622,0,0,1-.628-.628V184.128a.628.628,0,0,1,1.255,0v16.494A.643.643,0,0,1,68.828,201.274Z" transform="translate(-33.104 -137.433)"/>
      <path id="Trazado_1017510" data-name="Trazado 1017510" d="M185.428,205.768a.622.622,0,0,1-.628-.628V190.128a.628.628,0,0,1,1.255,0v14.987A.643.643,0,0,1,185.428,205.768Z" transform="translate(-120.432 -141.927)"/>
      <path id="Trazado_1017511" data-name="Trazado 1017511" d="M139.911,144.291a.551.551,0,0,1-.427-.176l-.151-.151-3.238-4.042a.662.662,0,0,1-.075-.678l2.285-4.72a.633.633,0,0,1,.828-.3l2.209,1.079a.641.641,0,0,1,.351.653l-1.155,7.782A.625.625,0,0,1,139.911,144.291Zm-2.586-4.845,2.184,2.711.879-5.925-1.23-.6Z" transform="translate(-83.853 -100.483)"/>
      <path id="Trazado_1017512" data-name="Trazado 1017512" d="M98.954,144.351a.645.645,0,0,1-.628-.527l-1.155-7.782a.607.607,0,0,1,.351-.653l2.209-1.079a.623.623,0,0,1,.828.276v.025l2.109,4.695c0,.025.025.025.025.05a.642.642,0,0,1-.025.728L99.506,144l-.151.151A.457.457,0,0,1,98.954,144.351Zm-.477-8.033.879,5.925,2.084-2.586-1.757-3.916Z" transform="translate(-54.795 -100.544)"/>
      <path id="Trazado_1017513" data-name="Trazado 1017513" d="M118.026,159.049h-3.665a.6.6,0,0,1-.577-.4l-1.506-3.916a.636.636,0,0,1,.1-.628l.628-.778a.609.609,0,0,1,.527-.226.682.682,0,0,1,.5.276.429.429,0,0,0,.326.176h3.59a.379.379,0,0,0,.351-.226.633.633,0,0,1,.828-.3,1.379,1.379,0,0,1,.226.176l.728.879a.626.626,0,0,1,.1.628l-1.506,3.916a.791.791,0,0,1-.653.427Zm-3.238-1.255h2.787l1.23-3.188-.05-.05a1.557,1.557,0,0,1-.879.251h-3.59a1.582,1.582,0,0,1-.753-.176Z" transform="translate(-66.085 -114.564)"/>
      <path id="Trazado_1017514" data-name="Trazado 1017514" d="M117.631,193.312h-5.774a.645.645,0,0,1-.628-.527l-.929-6.125v-.176l1.983-13.657a.625.625,0,0,1,.628-.527h3.665a.645.645,0,0,1,.628.527l1.983,13.657v.176l-.929,6.126A.645.645,0,0,1,117.631,193.312Zm-5.247-1.255h4.695l.828-5.5-1.883-13.029h-2.561l-1.883,13.029Z" transform="translate(-64.635 -129.045)"/>
      <path id="Trazado_1017515" data-name="Trazado 1017515" d="M170.433,147.466a7.933,7.933,0,1,1,7.933-7.933A7.934,7.934,0,0,1,170.433,147.466Zm0-14.611a6.678,6.678,0,1,0,6.678,6.678A6.675,6.675,0,0,0,170.433,132.855Z" transform="translate(-103.73 -98.562)"/>
      <path id="Trazado_1017516" data-name="Trazado 1017516" d="M54.263,26.23h-.527V25.7a.718.718,0,0,0-.7-.7.7.7,0,0,0-.7.7v.527H51.8a.7.7,0,1,0,0,1.406h.527v.527a.7.7,0,1,0,1.406,0v-.527h.527a.718.718,0,0,0,.7-.7.7.7,0,0,0-.7-.7Z" transform="translate(-20.297 -18.724)" fill="#70d6f9"/>
      <path id="Trazado_1017517" data-name="Trazado 1017517" d="M190.592,99.027a2.464,2.464,0,0,1-1.983-1.933c0-.025-.025-.05-.05-.025a.025.025,0,0,0-.025.025,2.432,2.432,0,0,1-1.983,1.933.054.054,0,0,0-.05.05c0,.025.025.025.05.05a2.464,2.464,0,0,1,1.983,1.933c0,.025.025.05.05.025a.025.025,0,0,0,.025-.025,2.432,2.432,0,0,1,1.983-1.933.054.054,0,0,0,.05-.05C190.642,99.027,190.617,99.027,190.592,99.027Z" transform="translate(-121.705 -72.693)" fill="#f5c84c"/>
      <circle id="Elipse_16699" data-name="Elipse 16699" cx="0.5" cy="0.5" r="0.5" transform="translate(31 14.268)" fill="#87d147"/>
      <ellipse id="Elipse_16700" data-name="Elipse 16700" cx="1" cy="0.5" rx="1" ry="0.5" transform="translate(69 30.268)" fill="#fc657e"/>
      <circle id="Elipse_16701" data-name="Elipse 16701" cx="1" cy="1" r="1" transform="translate(24 48.268)" fill="#f5c84c"/>
      <path id="Trazado_1017518" data-name="Trazado 1017518" d="M113.155,130.533h-3.59a1.648,1.648,0,0,1-1.506-.979l-2.109-4.695a.892.892,0,0,1-.05-.251v-3.414a.622.622,0,0,1,.628-.628.6.6,0,0,1,.3.075,9.282,9.282,0,0,0,9.213,0,.619.619,0,0,1,.854.226.668.668,0,0,1,.075.3v3.414a.9.9,0,0,1-.05.276l-2.285,4.72A1.615,1.615,0,0,1,113.155,130.533Zm-6-6.05,2.059,4.569a.379.379,0,0,0,.351.226h3.59a.379.379,0,0,0,.351-.226l2.234-4.594V122.2a10.449,10.449,0,0,1-8.586,0Z" transform="translate(-61.339 -90.291)"/>
      <path id="Trazado_1017519" data-name="Trazado 1017519" d="M166.475,65.346a3.831,3.831,0,0,1-.753-.075.609.609,0,0,1-.527-.653,5.913,5.913,0,0,0,.025-.628V56.459a.645.645,0,0,1,.527-.628,4.79,4.79,0,0,1,1.481,9.464,3.8,3.8,0,0,1-.753.05Zm-.025-1.255a3.54,3.54,0,1,0,.075-7.079h-.075v7.079Z" transform="translate(-105.747 -41.773)"/>
      <path id="Trazado_1017520" data-name="Trazado 1017520" d="M71.395,65.365A4.782,4.782,0,1,1,71.37,55.8c.251,0,.5.025.778.05a.625.625,0,0,1,.527.628v7.556a5.912,5.912,0,0,0,.025.628.609.609,0,0,1-.527.653C71.922,65.34,71.646,65.365,71.395,65.365Zm0-8.31a3.54,3.54,0,0,0,0,7.079h.025v-.1Z" transform="translate(-31.905 -41.792)"/>
      <path id="Trazado_1017521" data-name="Trazado 1017521" d="M96.394,60.589A10.6,10.6,0,0,1,85.8,50V41.962a1.155,1.155,0,0,1,.427-.9,1.142,1.142,0,0,1,.979-.226c1.958.4,6.828.9,10.218-3.339a1.185,1.185,0,0,1,1.632-.2c.025.025.075.05.1.075.7.678,2.761,2.285,6.753,2.41a1.176,1.176,0,0,1,1.13,1.13V49.97A10.677,10.677,0,0,1,96.394,60.589ZM87.055,42.062V49.97a9.339,9.339,0,1,0,18.678,0V41.033c-4.117-.151-6.4-1.707-7.431-2.686-3.816,4.72-9.439,4.092-11.247,3.715Z" transform="translate(-46.285 -27.753)"/>
      <path id="Trazado_1017522" data-name="Trazado 1017522" d="M100.239,16.418a.655.655,0,0,1-.427-.176,3.562,3.562,0,0,0-2.46-1,4.105,4.105,0,0,0-.552.05.644.644,0,0,1-.728-.527V13.28c-4.117-.151-6.4-1.707-7.431-2.686-3.816,4.72-9.439,4.092-11.247,3.715v.351a.622.622,0,0,1-.628.628h-.1a3.76,3.76,0,0,0-.552-.05,3.538,3.538,0,0,0-2.209.778.609.609,0,0,1-.879-.1.553.553,0,0,1-.126-.4V10.92A10.928,10.928,0,0,1,83.82,0h2.912a6.4,6.4,0,0,1,5.1,2.586,6.3,6.3,0,0,1,9.038,5.7v7.481A.628.628,0,0,1,100.239,16.418Zm-2.887-2.41a4.8,4.8,0,0,1,2.259.577V8.31a5.052,5.052,0,0,0-5.046-5.071,4.992,4.992,0,0,0-2.611.728.619.619,0,0,1-.854-.226,5.131,5.131,0,0,0-4.368-2.485H83.8a9.664,9.664,0,0,0-9.64,9.665v3.49a4.971,4.971,0,0,1,2.008-.427,1.164,1.164,0,0,1,1.356-.929h.025c1.958.4,6.828.9,10.218-3.339a1.185,1.185,0,0,1,1.632-.2c.025.025.075.05.1.075.7.678,2.761,2.285,6.753,2.41a1.176,1.176,0,0,1,1.13,1.13v.176Z" transform="translate(-36.624)"/>
      <path id="Trazado_1017523" data-name="Trazado 1017523" d="M178.97,156.734a1.881,1.881,0,0,1-1.331-.552l-2.234-2.234a1.882,1.882,0,1,1,2.636-2.686l.025.025.9.9,2.385-2.385a1.882,1.882,0,0,1,2.686,2.636l-.025.025-3.715,3.741A1.858,1.858,0,0,1,178.97,156.734Zm-.452-1.431a.607.607,0,0,0,.879,0l3.715-3.715a.607.607,0,0,0,0-.879.654.654,0,0,0-.879,0l-2.837,2.812a.607.607,0,0,1-.879,0l-1.356-1.356a.654.654,0,0,0-.879,0,.607.607,0,0,0,0,.879Z" transform="translate(-112.97 -111.772)"/>
    </g>
  </g>
</svg>
